<?xml version="1.0" standalone="no"?>
<!DOCTYPE svg PUBLIC "-//W3C//DTD SVG 20010904//EN"
 "http://www.w3.org/TR/2001/REC-SVG-20010904/DTD/svg10.dtd">
<svg version="1.0" xmlns="http://www.w3.org/2000/svg"
 width="5000.000000pt" height="3333.000000pt" viewBox="0 0 5000.000000 3333.000000"
 preserveAspectRatio="xMidYMid meet">

<g transform="translate(0.000000,3333.000000) scale(0.100000,-0.100000)"
fill="#000000" stroke="none">
<path d="M0 32070 c0 -1177 1 -1260 17 -1260 9 0 161 25 337 55 1404 239 3258
520 4756 720 311 41 581 77 600 80 284 38 1373 170 1865 226 193 21 368 41
390 44 119 14 537 59 790 85 527 54 579 59 745 75 91 8 183 18 205 20 22 3
216 21 430 40 215 19 410 37 435 40 51 5 134 12 230 20 79 6 285 24 360 30 30
3 228 19 440 35 212 17 414 32 450 35 36 3 193 14 350 25 157 11 314 22 350
25 485 36 1665 101 2425 135 2991 131 5970 115 8620 -45 50 -3 131 -8 180 -10
50 -3 117 -8 150 -10 33 -2 101 -7 150 -10 138 -8 303 -20 430 -30 33 -3 155
-12 270 -20 694 -50 1660 -143 2465 -236 1795 -207 3408 -468 5121 -830 l236
-49 264 -114 c849 -365 1870 -847 2639 -1247 3121 -1621 5996 -3627 8520
-5944 762 -700 1607 -1544 2296 -2295 1281 -1397 2472 -2931 3375 -4349 l104
-164 3 2184 2 2183 -56 86 c-163 245 -459 644 -682 918 -1670 2055 -4085 3938
-6977 5440 -165 86 -303 160 -306 165 -3 5 -9 7 -12 5 -11 -6 -206 96 -200
106 4 5 -1 7 -10 3 -10 -3 -17 -2 -17 4 0 6 -4 8 -9 5 -5 -3 -14 1 -21 9 -7 8
-19 15 -27 15 -18 0 -96 40 -105 54 -4 6 -6 16 -3 23 2 8 -2 10 -12 6 -12 -5
-14 -3 -8 7 6 9 4 11 -4 6 -9 -6 -8 -13 6 -28 17 -19 17 -19 -8 -8 -14 6 -31
21 -38 32 -8 13 -8 18 -1 13 17 -10 8 27 -10 43 -13 10 -12 11 4 5 13 -4 17
-3 13 4 -4 6 -7 1112 -7 2457 l0 2446 -130 0 -130 0 -2 -2402 -3 -2403 -5
2405 -5 2405 -5 -2405 -5 -2405 -3 2403 -2 2402 -20610 0 -20610 0 0 -1260z
m41060 -3464 c0 -2 -8 -10 -17 -17 -16 -13 -17 -12 -4 4 13 16 21 21 21 13z
m215 -106 c-3 -5 -12 -10 -18 -10 -7 0 -6 4 3 10 19 12 23 12 15 0z m146 -73
c-10 -9 -11 -8 -5 6 3 10 9 15 12 12 3 -3 0 -11 -7 -18z m-6 -27 c3 -6 -1 -7
-9 -4 -18 7 -21 14 -7 14 6 0 13 -4 16 -10z"/>
<path d="M41662 28346 c7 -8 15 -12 17 -11 5 6 -10 25 -20 25 -5 0 -4 -6 3
-14z"/>
<path d="M41615 28320 c-3 -6 1 -7 9 -4 18 7 21 14 7 14 -6 0 -13 -4 -16 -10z"/>
<path d="M0 4571 l0 -4571 8859 0 c4872 0 8886 3 8920 6 41 5 61 11 61 20 0
10 -13 14 -40 14 l-40 0 0 2008 0 2007 -30 -1 c-16 -1 -34 -2 -40 -3 -7 -1
-10 -675 -10 -2001 0 -1339 -3 -2000 -10 -2000 -7 0 -9 651 -8 1975 3 1622 1
1975 -10 1975 -8 0 -10 5 -6 12 5 8 1 9 -12 5 -14 -6 -13 -2 6 13 l25 21 -31
-15 c-17 -8 -37 -23 -44 -33 -11 -14 -11 -16 -1 -6 11 9 20 9 40 -1 l26 -14
-5 -1968 -5 -1969 -3 1968 c-1 1482 -5 1966 -14 1961 -7 -4 -8 -3 -4 4 6 11 0
14 -21 11 -5 -1 -7 -6 -5 -12 2 -6 -5 -4 -15 4 -14 12 -26 14 -50 7 -18 -5
-33 -13 -33 -19 0 -6 -4 -7 -10 -4 -5 3 -10 1 -10 -4 0 -6 -9 -11 -20 -11 -11
0 -20 -4 -20 -9 0 -5 19 -7 42 -4 24 2 40 2 37 -1 -10 -10 -79 -15 -84 -6 -8
12 -32 2 -39 -16 -4 -9 1 -14 15 -14 13 0 18 4 13 12 -5 7 -3 8 5 3 18 -10 -2
-28 -25 -23 -11 2 -18 9 -17 16 3 13 -50 -9 -189 -79 -48 -23 -84 -47 -81 -52
3 -6 1 -7 -5 -3 -6 3 -172 -74 -369 -172 -412 -204 -602 -293 -938 -437 -1290
-552 -2585 -894 -3830 -1009 -373 -35 -511 -41 -1005 -41 -513 0 -645 6 -1045
46 -1988 198 -3914 987 -5710 2337 -1500 1128 -2957 2715 -4100 4468 l-115
177 0 -4572z m17760 -4551 c0 -5 -22 -10 -50 -10 -27 0 -50 5 -50 10 0 6 23
10 50 10 28 0 50 -4 50 -10z"/>
<path d="M17875 4138 c-3 -7 -6 -931 -8 -2053 l-2 -2040 -3 2043 c-1 1353 -5
2042 -12 2042 -10 0 -14 -21 -11 -48 2 -10 -4 -12 -20 -7 -19 6 -20 5 -8 -8 8
-8 17 -13 22 -10 4 2 7 -895 7 -1993 0 -2047 0 -2064 37 -2064 7 0 10 7 7 15
-4 8 -1 15 6 15 6 0 9 4 6 9 -3 5 -6 932 -6 2060 0 1128 -3 2051 -5 2051 -3 0
-8 -6 -10 -12z"/>
<path d="M17753 4093 c-17 -6 -17 -20 0 -20 8 0 14 6 14 14 0 7 -1 13 -1 12
-1 0 -7 -3 -13 -6z"/>
<path d="M42677 3294 c-1 -1 -18 -5 -37 -8 -19 -3 -156 -26 -305 -50 -890
-148 -1796 -237 -2820 -276 -271 -10 -1599 -4 -2015 9 -984 32 -2543 -7 -3665
-90 -1813 -134 -3598 -383 -5480 -766 -258 -53 -479 -97 -490 -99 -11 -1 -36
-8 -55 -13 -19 -6 -49 -11 -65 -11 -17 0 -35 -4 -40 -8 -14 -12 -133 -32 -189
-32 -27 0 -46 -5 -46 -11 0 -6 -7 -8 -16 -5 -8 3 -13 2 -10 -3 8 -13 -46 -21
-138 -21 -50 0 -76 -4 -67 -9 22 -14 4 -33 -20 -21 -13 8 -19 7 -19 0 0 -7
-27 -11 -72 -10 -157 2 -168 1 -168 -15 0 -8 8 -15 18 -15 16 -1 16 -1 -1 -11
-10 -6 -35 -10 -55 -8 -20 1 -77 1 -125 0 -78 -1 -88 -3 -85 -18 2 -15 -6 -19
-41 -21 -32 -2 -44 -8 -48 -22 -4 -15 -8 -16 -18 -7 -7 7 -11 15 -8 19 2 5
-19 8 -46 8 -42 0 -51 -3 -51 -17 0 -15 -2 -16 -10 -3 -8 13 -10 13 -10 -1 0
-9 -6 -16 -12 -16 -7 -1 -39 -2 -71 -3 -45 -2 -57 -6 -55 -18 2 -8 -2 -17 -9
-19 -8 -3 -11 3 -8 16 5 27 -15 27 -22 0 -4 -13 -13 -20 -27 -18 -11 0 -49 1
-83 0 -56 -1 -63 -3 -63 -21 0 -18 -7 -20 -82 -20 -96 0 -128 -7 -128 -26 0
-11 -20 -14 -87 -16 -49 0 -95 -2 -103 -2 -9 -1 -15 -10 -14 -24 1 -21 -3 -23
-35 -21 -20 1 -57 1 -83 0 -41 -1 -48 -4 -48 -21 0 -11 -4 -20 -10 -20 -5 0
-10 9 -10 20 0 17 -6 20 -35 18 -26 -1 -35 -7 -35 -20 0 -15 -9 -18 -60 -18
-53 0 -60 -2 -60 -20 0 -17 -8 -19 -87 -22 -77 -3 -88 -5 -87 -20 2 -16 -9
-18 -98 -18 -91 0 -100 -2 -105 -20 -5 -18 -14 -20 -84 -20 -44 0 -78 -3 -78
-7 5 -32 6 -32 -148 -34 -24 -1 -63 -20 -63 -32 0 -5 11 -7 25 -5 14 3 28 1
31 -3 3 -5 -29 -9 -70 -9 -61 0 -76 -3 -76 -15 0 -18 -16 -20 -26 -3 -4 7 -3
8 4 4 7 -4 12 -2 12 3 0 6 -7 11 -15 11 -8 0 -15 -9 -15 -20 0 -18 -7 -20 -80
-20 -80 0 -99 -9 -58 -27 19 -8 16 -10 -23 -12 -24 -2 -63 -3 -86 -3 -32 0
-44 -5 -48 -18 -5 -14 -20 -19 -76 -22 -52 -3 -75 -8 -84 -21 -8 -11 -26 -17
-55 -17 -33 0 -41 -3 -36 -15 4 -11 -1 -15 -19 -15 -14 0 -25 7 -28 18 -4 15
-5 15 -6 1 -1 -23 -18 -28 -108 -30 -73 -2 -79 -3 -80 -23 -1 -11 1 -16 4 -9
2 7 11 9 19 6 25 -9 15 -19 -18 -18 -28 0 -33 3 -31 23 2 12 -2 22 -7 22 -6 0
-10 -11 -10 -25 0 -18 -5 -25 -20 -25 -11 0 -20 -4 -20 -10 0 -5 -10 -11 -22
-11 -13 -1 -5 -5 17 -9 32 -6 24 -8 -45 -9 -47 -1 -102 -1 -122 -1 -32 1 -38
-2 -38 -20 0 -14 -6 -21 -17 -19 -10 1 -48 1 -85 0 -63 -1 -68 -3 -68 -23 0
-22 -3 -23 -80 -21 -76 1 -80 0 -75 -18 6 -18 1 -19 -64 -19 -64 0 -71 -2 -71
-20 0 -17 -8 -19 -77 -22 -61 -2 -77 -6 -75 -17 5 -24 -19 -31 -105 -31 -76 0
-82 -1 -78 -20 4 -18 -2 -20 -59 -20 -55 0 -64 -3 -62 -17 1 -15 -9 -18 -61
-21 -55 -3 -63 -5 -63 -23 0 -11 -6 -19 -12 -18 -7 1 -36 1 -65 0 -40 -1 -53
-5 -56 -18 -4 -17 -5 -17 -6 0 -1 24 -31 22 -31 -3 0 -18 -7 -20 -60 -20 -53
0 -60 -2 -60 -20 0 -22 -10 -24 -112 -21 -56 2 -58 1 -58 -23 0 -24 -3 -26
-44 -26 -25 0 -48 -5 -52 -11 -4 -8 -9 -7 -15 2 -6 10 -9 8 -9 -8 0 -20 -5
-23 -45 -23 -25 0 -44 -3 -44 -8 6 -35 -17 -45 -24 -10 l-4 23 -2 -22 c-1 -22
-5 -23 -71 -23 -63 0 -70 -2 -70 -20 0 -17 -7 -20 -42 -21 -24 -1 -51 -1 -60
0 -12 2 -18 -5 -18 -18 0 -20 -6 -21 -85 -21 -78 0 -85 -2 -85 -20 0 -17 -7
-20 -44 -20 -41 0 -43 -1 -38 -25 4 -25 3 -25 -62 -25 -59 0 -66 -2 -66 -20 0
-11 -3 -19 -7 -19 -5 1 -32 1 -60 0 -45 -1 -53 -4 -53 -20 0 -13 -7 -19 -22
-18 -13 0 -51 -1 -85 -3 -53 -3 -63 -6 -63 -22 0 -15 -8 -18 -56 -18 -47 0
-57 -3 -61 -20 -5 -17 -14 -20 -69 -20 -57 0 -64 -2 -64 -20 0 -17 -7 -20 -40
-20 -36 0 -40 -2 -40 -25 0 -25 -1 -25 -85 -25 -78 0 -85 -2 -85 -20 0 -18 -7
-20 -60 -20 -47 0 -60 -3 -60 -15 0 -19 66 -21 73 -2 4 9 6 9 6 -1 1 -10 2253
-12 11246 -12 l11245 0 0 1631 c0 1301 -3 1629 -12 1623 -9 -5 -9 -2 1 9 7 9
23 17 35 17 20 -1 20 -2 4 -14 -17 -12 -18 -101 -18 -1620 0 -1064 3 -1606 10
-1606 7 0 11 546 12 1613 l3 1612 5 -1635 5 -1635 0 1638 c0 1084 3 1637 10
1637 6 0 4 4 -4 9 -11 7 -11 9 0 14 8 3 4 4 -9 4 -13 -1 -24 -2 -25 -3z
m-15630 -1450 c-3 -3 -12 -4 -19 -1 -8 3 -5 6 6 6 11 1 17 -2 13 -5z m-237
-48 c0 -3 -4 -8 -10 -11 -5 -3 -10 -1 -10 4 0 6 5 11 10 11 6 0 10 -2 10 -4z
m-410 -84 c0 -5 -7 -9 -15 -9 -8 0 -12 4 -9 9 3 4 9 8 15 8 5 0 9 -4 9 -8z
m-2330 -542 c-14 -4 -34 -8 -45 -8 l-20 -1 20 9 c11 5 31 8 45 8 l25 0 -25 -8z
m-320 -84 c0 -2 -7 -6 -15 -10 -8 -3 -15 -1 -15 4 0 6 7 10 15 10 8 0 15 -2
15 -4z m-290 -86 c0 -5 -7 -10 -16 -10 -8 0 -12 5 -9 10 3 6 10 10 16 10 5 0
9 -4 9 -10z m-215 -40 c3 -5 1 -10 -4 -10 -6 0 -11 5 -11 10 0 6 2 10 4 10 3
0 8 -4 11 -10z m-453 -132 c-7 -7 -10 -5 -7 8 5 29 6 30 12 16 3 -8 1 -18 -5
-24z m-874 -242 c3 -12 -1 -17 -10 -14 -7 3 -15 13 -16 22 -3 12 1 17 10 14 7
-3 15 -13 16 -22z"/>
<path d="M42730 3269 c0 -15 4 -19 16 -15 9 3 21 6 27 6 12 0 -23 29 -35 30
-5 0 -8 -9 -8 -21z"/>
<path d="M27080 1900 c0 -5 5 -10 10 -10 6 0 10 5 10 10 0 6 -4 10 -10 10 -5
0 -10 -4 -10 -10z"/>
<path d="M24420 1306 c0 -2 7 -6 15 -10 8 -3 15 -1 15 4 0 6 -7 10 -15 10 -8
0 -15 -2 -15 -4z"/>
<path d="M23880 1155 c0 -8 5 -15 10 -15 6 0 10 7 10 15 0 8 -4 15 -10 15 -5
0 -10 -7 -10 -15z"/>
<path d="M22008 633 c6 -2 18 -2 25 0 6 3 1 5 -13 5 -14 0 -19 -2 -12 -5z"/>
<path d="M21093 350 c1 -11 7 -20 13 -20 7 0 10 8 7 20 -3 11 -9 20 -14 20 -4
0 -7 -9 -6 -20z"/>
<path d="M20938 293 c7 -3 16 -2 19 1 4 3 -2 6 -13 5 -11 0 -14 -3 -6 -6z"/>
<path d="M20300 90 c0 -5 5 -10 11 -10 5 0 7 5 4 10 -3 6 -8 10 -11 10 -2 0
-4 -4 -4 -10z"/>
<path d="M42670 10 c0 -5 5 -10 10 -10 6 0 10 5 10 10 0 6 -4 10 -10 10 -5 0
-10 -4 -10 -10z"/>
</g>
</svg>
